<svg height="686" width="720" xmlns="http://www.w3.org/2000/svg">
<rect height="686" fill="#555" width="720"></rect>
<text fill="#7f7" font-family="Courier New" font-size="12" xml:space="preserve">
<tspan x="10" y="26">2015-09-05 02:24:43 +0800</tspan>
<tspan x="10" y="42">- npm publish 2015.8.1</tspan>
<tspan x="10" y="58">- update README.md</tspan>
<tspan x="10" y="74"></tspan>
<tspan x="10" y="90">2015-08-20 12:27:15 +0800</tspan>
<tspan x="10" y="106">'update README.md'</tspan>
<tspan x="10" y="122"></tspan>
<tspan x="10" y="138">2015-08-20 08:16:23 +0800</tspan>
<tspan x="10" y="154">'update README.md'</tspan>
<tspan x="10" y="170"></tspan>
<tspan x="10" y="186">2015-08-18 00:17:27 +0800</tspan>
<tspan x="10" y="202">update devDependencies</tspan>
<tspan x="10" y="218"></tspan>
<tspan x="10" y="234">2015-07-31 17:24:45 +0800</tspan>
<tspan x="10" y="250">'update dependencies'</tspan>
<tspan x="10" y="266"></tspan>
<tspan x="10" y="282">2015-07-31 15:58:58 +0800</tspan>
<tspan x="10" y="298">'update dependencies'</tspan>
<tspan x="10" y="314"></tspan>
<tspan x="10" y="330">2015-07-26 23:25:27 +0800</tspan>
<tspan x="10" y="346">- npm publish 2015.7.3</tspan>
<tspan x="10" y="362">- update README.md</tspan>
<tspan x="10" y="378"></tspan>
<tspan x="10" y="394">2015-07-25 13:08:19 +0800</tspan>
<tspan x="10" y="410">- npm publish 2015.7.2</tspan>
<tspan x="10" y="426">- deploy heroku test-server</tspan>
<tspan x="10" y="442"></tspan>
<tspan x="10" y="458">2015-07-25 10:46:52 +0800</tspan>
<tspan x="10" y="474">- npm publish 2015.7.1</tspan>
<tspan x="10" y="490">- add simple xor training and test example</tspan>
<tspan x="10" y="506">- fix ci-build</tspan>
<tspan x="10" y="522"></tspan>
<tspan x="10" y="538">2015-06-11 11:11:07 +0800</tspan>
<tspan x="10" y="554">- npm publish 2015.6.1-a</tspan>
<tspan x="10" y="570">- add compiled doublefann.js from emscripten</tspan>
<tspan x="10" y="586"></tspan>
<tspan x="10" y="602">2015-06-11 02:24:44 +0000</tspan>
<tspan x="10" y="618">add compiled doublefann.js from emscripten</tspan>
<tspan x="10" y="634"></tspan>
<tspan x="10" y="650">2014-03-26 02:31:50 +0700</tspan>
<tspan x="10" y="666">add blank README.md</tspan>
</text>
</svg>
