<svg height="590" width="720" xmlns="http://www.w3.org/2000/svg">
<rect height="590" fill="#555" width="720"></rect>
<text fill="#7f7" font-family="Courier New" font-size="12" xml:space="preserve">
<tspan x="10" y="26">2015-12-16 11:36:25 +0800</tspan>
<tspan x="10" y="42">'unindent function comment blocks'</tspan>
<tspan x="10" y="58"></tspan>
<tspan x="10" y="74">2015-09-25 22:44:50 +0800</tspan>
<tspan x="10" y="90">'update to nodejs v4'</tspan>
<tspan x="10" y="106"></tspan>
<tspan x="10" y="122">2015-09-25 22:40:38 +0800</tspan>
<tspan x="10" y="138">'update to nodejs v4'</tspan>
<tspan x="10" y="154"></tspan>
<tspan x="10" y="170">2015-09-05 02:36:51 +0800</tspan>
<tspan x="10" y="186">- npm publish 2015.8.1</tspan>
<tspan x="10" y="202">- update README.md</tspan>
<tspan x="10" y="218"></tspan>
<tspan x="10" y="234">2015-07-26 23:25:27 +0800</tspan>
<tspan x="10" y="250">- npm publish 2015.7.3</tspan>
<tspan x="10" y="266">- update README.md</tspan>
<tspan x="10" y="282"></tspan>
<tspan x="10" y="298">2015-07-25 13:08:19 +0800</tspan>
<tspan x="10" y="314">- npm publish 2015.7.2</tspan>
<tspan x="10" y="330">- deploy heroku test-server</tspan>
<tspan x="10" y="346"></tspan>
<tspan x="10" y="362">2015-07-25 10:46:52 +0800</tspan>
<tspan x="10" y="378">- npm publish 2015.7.1</tspan>
<tspan x="10" y="394">- add simple xor training and test example</tspan>
<tspan x="10" y="410">- fix ci-build</tspan>
<tspan x="10" y="426"></tspan>
<tspan x="10" y="442">2015-06-11 11:11:07 +0800</tspan>
<tspan x="10" y="458">- npm publish 2015.6.1-a</tspan>
<tspan x="10" y="474">- add compiled doublefann.js from emscripten</tspan>
<tspan x="10" y="490"></tspan>
<tspan x="10" y="506">2015-06-11 02:24:44 +0000</tspan>
<tspan x="10" y="522">add compiled doublefann.js from emscripten</tspan>
<tspan x="10" y="538"></tspan>
<tspan x="10" y="554">2014-03-26 02:31:50 +0700</tspan>
<tspan x="10" y="570">add blank README.md</tspan>
</text>
</svg>
