<svg height="558" width="720" xmlns="http://www.w3.org/2000/svg">
<rect height="558" fill="#555" width="720"></rect>
<text fill="#7f7" font-family="Courier New" font-size="12" xml:space="preserve">
<tspan x="10" y="26"></tspan>
<tspan x="10" y="42">&gt; fann-lite@2015.8.1 test /home/travis/build/kaizhu256/node-fann-lite</tspan>
<tspan x="10" y="58">&gt; utility2 shRun shReadmeExportPackageJson &amp;&amp; node_modules/.bin/utility2 test test.js</tspan>
<tspan x="10" y="74"></tspan>
<tspan x="10" y="90"></tspan>
<tspan x="10" y="106">[MODE_BUILD=npmTest] - 2015-09-04T18:38:02Z - npm-testing /home/travis/build/kaizhu256/node-fann\</tspan>
<tspan x="10" y="122">-lite</tspan>
<tspan x="10" y="138"></tspan>
<tspan x="10" y="154"></tspan>
<tspan x="10" y="170">covering $ node /home/travis/build/kaizhu256/node-fann-lite/test.js</tspan>
<tspan x="10" y="186">server starting on port 51380</tspan>
<tspan x="10" y="202">&gt; </tspan>
<tspan x="10" y="218">-------------------------------------------------------</tspan>
<tspan x="10" y="234"></tspan>
<tspan x="10" y="250"></tspan>
<tspan x="10" y="266">created test-report file:///home/travis/build/kaizhu256/node-fann-lite/tmp/build/test-report.htm\</tspan>
<tspan x="10" y="282">l</tspan>
<tspan x="10" y="298"></tspan>
<tspan x="10" y="314">npmTest - 0 failed tests</tspan>
<tspan x="10" y="330"></tspan>
<tspan x="10" y="346">-----------------|----------|----------|----------|----------|----------------|</tspan>
<tspan x="10" y="362">File             |  % Stmts | % Branch |  % Funcs |  % Lines |Uncovered Lines |</tspan>
<tspan x="10" y="378">-----------------|----------|----------|----------|----------|----------------|</tspan>
<tspan x="10" y="394"> node-fann-lite/ |    99.81 |    99.44 |    98.92 |     99.8 |                |</tspan>
<tspan x="10" y="410">  example.js     |    61.36 |       28 |    66.67 |    61.36 |... 212,213,238 |</tspan>
<tspan x="10" y="426">  fann.js        |    99.87 |    99.81 |    99.18 |    99.86 |... 2,184,39350 |</tspan>
<tspan x="10" y="442">  test.js        |    91.67 |    57.89 |      100 |    91.67 |       20,21,85 |</tspan>
<tspan x="10" y="458">-----------------|----------|----------|----------|----------|----------------|</tspan>
<tspan x="10" y="474">All files        |    99.81 |    99.44 |    98.92 |     99.8 |                |</tspan>
<tspan x="10" y="490">-----------------|----------|----------|----------|----------|----------------|</tspan>
<tspan x="10" y="506"></tspan>
<tspan x="10" y="522">created coverage file:///home/travis/build/kaizhu256/node-fann-lite/tmp/build/coverage.html/inde\</tspan>
<tspan x="10" y="538">x.html</tspan>
</text>
</svg>
