<svg height="542" width="720" xmlns="http://www.w3.org/2000/svg">
<rect height="542" fill="#555" width="720"></rect>
<text fill="#7f7" font-family="Courier New" font-size="12" xml:space="preserve">
<tspan x="10" y="26">2015-09-25 22:44:50 +0800</tspan>
<tspan x="10" y="42">'update to nodejs v4'</tspan>
<tspan x="10" y="58"></tspan>
<tspan x="10" y="74">2015-09-25 22:40:38 +0800</tspan>
<tspan x="10" y="90">'update to nodejs v4'</tspan>
<tspan x="10" y="106"></tspan>
<tspan x="10" y="122">2015-09-05 02:36:51 +0800</tspan>
<tspan x="10" y="138">- npm publish 2015.8.1</tspan>
<tspan x="10" y="154">- update README.md</tspan>
<tspan x="10" y="170"></tspan>
<tspan x="10" y="186">2015-07-26 23:25:27 +0800</tspan>
<tspan x="10" y="202">- npm publish 2015.7.3</tspan>
<tspan x="10" y="218">- update README.md</tspan>
<tspan x="10" y="234"></tspan>
<tspan x="10" y="250">2015-07-25 13:08:19 +0800</tspan>
<tspan x="10" y="266">- npm publish 2015.7.2</tspan>
<tspan x="10" y="282">- deploy heroku test-server</tspan>
<tspan x="10" y="298"></tspan>
<tspan x="10" y="314">2015-07-25 10:46:52 +0800</tspan>
<tspan x="10" y="330">- npm publish 2015.7.1</tspan>
<tspan x="10" y="346">- add simple xor training and test example</tspan>
<tspan x="10" y="362">- fix ci-build</tspan>
<tspan x="10" y="378"></tspan>
<tspan x="10" y="394">2015-06-11 11:11:07 +0800</tspan>
<tspan x="10" y="410">- npm publish 2015.6.1-a</tspan>
<tspan x="10" y="426">- add compiled doublefann.js from emscripten</tspan>
<tspan x="10" y="442"></tspan>
<tspan x="10" y="458">2015-06-11 02:24:44 +0000</tspan>
<tspan x="10" y="474">add compiled doublefann.js from emscripten</tspan>
<tspan x="10" y="490"></tspan>
<tspan x="10" y="506">2014-03-26 02:31:50 +0700</tspan>
<tspan x="10" y="522">add blank README.md</tspan>
</text>
</svg>
