<svg height="494" width="720" xmlns="http://www.w3.org/2000/svg">
<rect height="494" fill="#555" width="720"></rect>
<text fill="#7f7" font-family="Courier New" font-size="12" xml:space="preserve">
<tspan x="10" y="26">2015-09-25 22:40:38 +0800</tspan>
<tspan x="10" y="42">'update to nodejs v4'</tspan>
<tspan x="10" y="58"></tspan>
<tspan x="10" y="74">2015-09-05 02:36:51 +0800</tspan>
<tspan x="10" y="90">- npm publish 2015.8.1</tspan>
<tspan x="10" y="106">- update README.md</tspan>
<tspan x="10" y="122"></tspan>
<tspan x="10" y="138">2015-07-26 23:25:27 +0800</tspan>
<tspan x="10" y="154">- npm publish 2015.7.3</tspan>
<tspan x="10" y="170">- update README.md</tspan>
<tspan x="10" y="186"></tspan>
<tspan x="10" y="202">2015-07-25 13:08:19 +0800</tspan>
<tspan x="10" y="218">- npm publish 2015.7.2</tspan>
<tspan x="10" y="234">- deploy heroku test-server</tspan>
<tspan x="10" y="250"></tspan>
<tspan x="10" y="266">2015-07-25 10:46:52 +0800</tspan>
<tspan x="10" y="282">- npm publish 2015.7.1</tspan>
<tspan x="10" y="298">- add simple xor training and test example</tspan>
<tspan x="10" y="314">- fix ci-build</tspan>
<tspan x="10" y="330"></tspan>
<tspan x="10" y="346">2015-06-11 11:11:07 +0800</tspan>
<tspan x="10" y="362">- npm publish 2015.6.1-a</tspan>
<tspan x="10" y="378">- add compiled doublefann.js from emscripten</tspan>
<tspan x="10" y="394"></tspan>
<tspan x="10" y="410">2015-06-11 02:24:44 +0000</tspan>
<tspan x="10" y="426">add compiled doublefann.js from emscripten</tspan>
<tspan x="10" y="442"></tspan>
<tspan x="10" y="458">2014-03-26 02:31:50 +0700</tspan>
<tspan x="10" y="474">add blank README.md</tspan>
</text>
</svg>
