<svg height="574" width="720" xmlns="http://www.w3.org/2000/svg">
<rect height="574" fill="#555" width="720"></rect>
<text fill="#7f7" font-family="Courier New" font-size="12" xml:space="preserve">
<tspan x="10" y="26"></tspan>
<tspan x="10" y="42">[MODE_BUILD=testExampleJs] - 2016-01-15T17:36:33Z - testing example.js</tspan>
<tspan x="10" y="58"></tspan>
<tspan x="10" y="74">/tmp/app</tspan>
<tspan x="10" y="90">└── jslint-lite@2015.9.1 </tspan>
<tspan x="10" y="106"></tspan>
<tspan x="10" y="122">npm WARN ENOENT ENOENT: no such file or directory, open '/tmp/app/package.json'</tspan>
<tspan x="10" y="138">npm WARN EPACKAGEJSON app No description</tspan>
<tspan x="10" y="154">npm WARN EPACKAGEJSON app No repository field.</tspan>
<tspan x="10" y="170">npm WARN EPACKAGEJSON app No README data</tspan>
<tspan x="10" y="186">npm WARN EPACKAGEJSON app No license field.</tspan>
<tspan x="10" y="202">npm install fann-lite &amp;&amp; node example.js</tspan>
<tspan x="10" y="218"></tspan>
<tspan x="10" y="234">/tmp/app</tspan>
<tspan x="10" y="250">└── fann-lite@2015.8.1 </tspan>
<tspan x="10" y="266"></tspan>
<tspan x="10" y="282">npm WARN ENOENT ENOENT: no such file or directory, open '/tmp/app/package.json'</tspan>
<tspan x="10" y="298">npm WARN EPACKAGEJSON app No description</tspan>
<tspan x="10" y="314">npm WARN EPACKAGEJSON app No repository field.</tspan>
<tspan x="10" y="330">npm WARN EPACKAGEJSON app No README data</tspan>
<tspan x="10" y="346">npm WARN EPACKAGEJSON app No license field.</tspan>
<tspan x="10" y="362">server starting on port 1337</tspan>
<tspan x="10" y="378">server stopping on port 1337</tspan>
<tspan x="10" y="394">pre-main prep time: 1 ms</tspan>
<tspan x="10" y="410">Max epochs     5000. Desired error: 0.0010000000.</tspan>
<tspan x="10" y="426">FANN Error 1: Unable to open cFANN Error 19: The number of input neurons in the ann (2) and data\</tspan>
<tspan x="10" y="442"> (1650552405) don't match</tspan>
<tspan x="10" y="458">Epochs            1. Current error: 0.0000000000. Bit fail 0.</tspan>
<tspan x="10" y="474">1 xor 1 -&gt; 0.030931360757176396</tspan>
<tspan x="10" y="490">1 xor 0 -&gt; 0.031411543096557804</tspan>
<tspan x="10" y="506">0 xor 1 -&gt; 0.03158770655437304</tspan>
<tspan x="10" y="522">slimerjs - opened http://localhost:1337</tspan>
<tspan x="10" y="538">slimerjs - created screen-capture file:///home/travis/build/kaizhu256/node-fann-lite/tmp/build/s\</tspan>
<tspan x="10" y="554">creen-capture.testExampleJs.slimerjs..png</tspan>
</text>
</svg>
